<svg xmlns="http://www.w3.org/2000/svg" xmlns:xlink="http://www.w3.org/1999/xlink" width="500" zoomAndPan="magnify" viewBox="0 0 375 374.999991" height="500" preserveAspectRatio="xMidYMid meet" version="1.0"><defs><g/><clipPath id="cfe35de649"><path d="M 212.054688 89.871094 L 302.902344 89.871094 L 302.902344 128 L 212.054688 128 Z M 212.054688 89.871094 " clip-rule="nonzero"/></clipPath><clipPath id="2594ba0018"><path d="M 212.054688 127 L 279 127 L 279 191.316406 L 212.054688 191.316406 Z M 212.054688 127 " clip-rule="nonzero"/></clipPath></defs><rect x="-37.5" width="450" fill="#ffffff" y="-37.499999" height="449.999989" fill-opacity="1"/><rect x="-37.5" width="450" fill="#00abe4" y="-37.499999" height="449.999989" fill-opacity="1"/><g clip-path="url(#cfe35de649)"><path fill="#d6e9ff" d="M 223.585938 89.96875 L 291.390625 89.96875 C 292.148438 89.96875 292.898438 90.042969 293.640625 90.191406 C 294.382812 90.339844 295.105469 90.558594 295.804688 90.851562 C 296.503906 91.140625 297.167969 91.496094 297.796875 91.917969 C 298.429688 92.339844 299.011719 92.820312 299.546875 93.355469 C 300.082031 93.894531 300.558594 94.476562 300.980469 95.109375 C 301.402344 95.742188 301.757812 96.40625 302.046875 97.109375 C 302.335938 97.8125 302.554688 98.535156 302.703125 99.277344 C 302.851562 100.023438 302.921875 100.777344 302.921875 101.535156 L 302.921875 115.648438 C 302.921875 116.410156 302.851562 117.160156 302.703125 117.90625 C 302.554688 118.648438 302.335938 119.375 302.046875 120.074219 C 301.757812 120.777344 301.402344 121.441406 300.980469 122.074219 C 300.558594 122.707031 300.082031 123.289062 299.546875 123.828125 C 299.011719 124.363281 298.429688 124.84375 297.796875 125.265625 C 297.167969 125.6875 296.503906 126.042969 295.804688 126.332031 C 295.105469 126.625 294.382812 126.84375 293.640625 126.992188 C 292.898438 127.140625 292.148438 127.214844 291.390625 127.214844 L 212.054688 127.214844 L 212.054688 101.535156 C 212.054688 100.777344 212.128906 100.023438 212.273438 99.277344 C 212.421875 98.535156 212.640625 97.8125 212.929688 97.109375 C 213.222656 96.40625 213.578125 95.742188 213.996094 95.109375 C 214.417969 94.476562 214.894531 93.894531 215.429688 93.355469 C 215.964844 92.820312 216.550781 92.339844 217.179688 91.917969 C 217.808594 91.496094 218.472656 91.140625 219.171875 90.851562 C 219.871094 90.558594 220.59375 90.339844 221.335938 90.191406 C 222.078125 90.042969 222.828125 89.96875 223.585938 89.96875 Z M 223.585938 89.96875 " fill-opacity="1" fill-rule="nonzero"/></g><g clip-path="url(#2594ba0018)"><path fill="#d6e9ff" d="M 266.703125 127.214844 L 212.054688 127.214844 L 212.054688 191.214844 L 238.734375 164.449219 L 266.703125 164.449219 C 267.460938 164.449219 268.210938 164.375 268.953125 164.226562 C 269.695312 164.078125 270.417969 163.859375 271.117188 163.570312 C 271.816406 163.277344 272.480469 162.921875 273.113281 162.5 C 273.742188 162.078125 274.324219 161.597656 274.859375 161.0625 C 275.394531 160.523438 275.871094 159.941406 276.292969 159.308594 C 276.714844 158.679688 277.070312 158.011719 277.359375 157.308594 C 277.648438 156.609375 277.867188 155.886719 278.015625 155.140625 C 278.164062 154.394531 278.238281 153.644531 278.238281 152.882812 L 278.238281 138.773438 C 278.234375 138.015625 278.160156 137.261719 278.015625 136.519531 C 277.867188 135.773438 277.648438 135.050781 277.355469 134.351562 C 277.066406 133.648438 276.710938 132.984375 276.292969 132.351562 C 275.871094 131.71875 275.394531 131.136719 274.855469 130.601562 C 274.320312 130.0625 273.738281 129.582031 273.109375 129.164062 C 272.480469 128.742188 271.816406 128.382812 271.117188 128.09375 C 270.417969 127.804688 269.695312 127.585938 268.953125 127.4375 C 268.210938 127.289062 267.460938 127.214844 266.703125 127.214844 Z M 266.703125 127.214844 " fill-opacity="1" fill-rule="nonzero"/><path fill="#ffffff" d="M 266.703125 127.214844 L 223.585938 127.214844 C 222.828125 127.214844 222.078125 127.289062 221.335938 127.4375 C 220.59375 127.585938 219.871094 127.804688 219.171875 128.09375 C 218.472656 128.386719 217.808594 128.742188 217.179688 129.164062 C 216.550781 129.585938 215.964844 130.066406 215.429688 130.601562 C 214.894531 131.136719 214.417969 131.722656 213.996094 132.355469 C 213.578125 132.984375 213.222656 133.652344 212.929688 134.351562 C 212.640625 135.054688 212.421875 135.777344 212.273438 136.523438 C 212.128906 137.269531 212.054688 138.019531 212.054688 138.777344 L 212.054688 191.214844 L 234.253906 168.949219 C 235.6875 167.511719 237.34375 166.402344 239.214844 165.621094 C 241.089844 164.839844 243.042969 164.449219 245.070312 164.449219 L 266.703125 164.449219 C 267.460938 164.449219 268.210938 164.375 268.953125 164.226562 C 269.695312 164.078125 270.417969 163.859375 271.117188 163.570312 C 271.816406 163.277344 272.480469 162.921875 273.113281 162.5 C 273.742188 162.078125 274.324219 161.597656 274.859375 161.0625 C 275.394531 160.523438 275.871094 159.941406 276.292969 159.308594 C 276.714844 158.679688 277.070312 158.011719 277.359375 157.308594 C 277.648438 156.609375 277.867188 155.886719 278.015625 155.140625 C 278.164062 154.394531 278.238281 153.644531 278.238281 152.882812 L 278.238281 138.773438 C 278.234375 138.015625 278.160156 137.261719 278.015625 136.519531 C 277.867188 135.773438 277.648438 135.050781 277.355469 134.351562 C 277.066406 133.648438 276.710938 132.984375 276.292969 132.351562 C 275.871094 131.71875 275.394531 131.136719 274.855469 130.601562 C 274.320312 130.0625 273.738281 129.582031 273.109375 129.164062 C 272.480469 128.742188 271.816406 128.382812 271.117188 128.09375 C 270.417969 127.804688 269.695312 127.585938 268.953125 127.4375 C 268.210938 127.289062 267.460938 127.214844 266.703125 127.214844 Z M 266.703125 127.214844 " fill-opacity="1" fill-rule="nonzero"/></g><path stroke-linecap="round" transform="matrix(0.750936, 0, 0, 0.757058, 229.15294, 144.341256)" fill="none" stroke-linejoin="miter" d="M 2.501291 2.500626 L 43.881929 2.500626 " stroke="#00abe4" stroke-width="5" stroke-opacity="1" stroke-miterlimit="4"/><path stroke-linecap="round" transform="matrix(0.755013, 0, 0, 0.757058, 229.15294, 106.942596)" fill="none" stroke-linejoin="miter" d="M 2.498132 2.50092 L 72.716281 2.50092 " stroke="#00abe4" stroke-width="5" stroke-opacity="1" stroke-miterlimit="4"/><g fill="#d6e9ff" fill-opacity="1"><g transform="translate(61.275055, 243.505392)"><g><path d="M 22.210938 -44.933594 L 6.097656 -44.933594 L 6.097656 0 L 11.746094 0 L 11.746094 -16.113281 L 22.210938 -16.113281 C 30.746094 -16.113281 37.101562 -22.273438 37.101562 -30.492188 C 37.101562 -38.773438 30.683594 -44.933594 22.210938 -44.933594 Z M 21.953125 -21.570312 L 11.746094 -21.570312 L 11.746094 -39.476562 L 21.953125 -39.476562 C 27.410156 -39.476562 31.390625 -35.625 31.390625 -30.492188 C 31.390625 -25.355469 27.410156 -21.570312 21.953125 -21.570312 Z M 21.953125 -21.570312 "/></g></g></g><g fill="#d6e9ff" fill-opacity="1"><g transform="translate(100.429473, 243.505392)"><g><path d="M 11.746094 -5.390625 L 11.746094 -20.476562 L 29.847656 -20.476562 L 29.847656 -25.675781 L 11.746094 -25.675781 L 11.746094 -39.542969 L 31.519531 -39.542969 L 31.519531 -44.933594 L 6.097656 -44.933594 L 6.097656 0 L 32.222656 0 L 32.222656 -5.390625 Z M 11.746094 -5.390625 "/></g></g></g><g fill="#d6e9ff" fill-opacity="1"><g transform="translate(135.925199, 243.505392)"><g><path d="M 36.398438 -44.933594 L 36.398438 -10.269531 L 11.234375 -44.933594 L 6.097656 -44.933594 L 6.097656 0 L 11.617188 0 L 11.617188 -35.046875 L 37.167969 0 L 41.917969 0 L 41.917969 -44.933594 Z M 36.398438 -44.933594 "/></g></g></g><g fill="#d6e9ff" fill-opacity="1"><g transform="translate(184.001692, 243.505392)"><g><path d="M 26.0625 0.707031 C 36.652344 0.707031 45 -5.648438 47.566406 -15.792969 L 41.851562 -15.792969 C 39.476562 -8.921875 33.636719 -4.8125 26.0625 -4.8125 C 16.046875 -4.8125 8.792969 -12.066406 8.792969 -22.402344 C 8.792969 -32.738281 16.046875 -40.121094 26.0625 -40.121094 C 33.445312 -40.121094 39.222656 -36.203125 41.597656 -29.71875 L 47.375 -29.71875 C 44.804688 -39.414062 36.460938 -45.574219 26.0625 -45.574219 C 12.710938 -45.574219 3.015625 -35.882812 3.015625 -22.402344 C 3.015625 -8.988281 12.710938 0.707031 26.0625 0.707031 Z M 26.0625 0.707031 "/></g></g></g><g fill="#d6e9ff" fill-opacity="1"><g transform="translate(233.811253, 243.505392)"><g/></g></g><g fill="#d6e9ff" fill-opacity="1"><g transform="translate(250.628389, 243.505392)"><g><path d="M 58.542969 0 L 51.097656 -44.933594 L 45.511719 -44.933594 L 30.621094 -11.941406 L 15.792969 -44.933594 L 10.335938 -44.933594 L 2.761719 0 L 8.539062 0 L 14.441406 -35.046875 L 29.914062 -1.089844 L 31.453125 -1.089844 L 46.925781 -35.046875 L 52.765625 0 Z M 58.542969 0 "/></g></g></g><g fill="#d6e9ff" fill-opacity="1"><g transform="translate(312.055911, 243.505392)"><g><path d="M 6.097656 0 L 11.746094 0 L 11.746094 -44.933594 L 6.097656 -44.933594 Z M 6.097656 0 "/></g></g></g><g fill="#d6e9ff" fill-opacity="1"><g transform="translate(72.187889, 178.483542)"><g><path d="M 54.046875 -36.046875 C 54.046875 -23.453125 51.984375 -14.128906 47.859375 -8.078125 C 43.734375 -2.035156 37.378906 0.984375 28.796875 0.984375 C 20.484375 0.984375 14.210938 -2.132812 9.984375 -8.375 C 5.765625 -14.625 3.65625 -23.847656 3.65625 -36.046875 C 3.65625 -48.773438 5.707031 -58.15625 9.8125 -64.1875 C 13.925781 -70.21875 20.253906 -73.234375 28.796875 -73.234375 C 37.117188 -73.234375 43.40625 -70.078125 47.65625 -63.765625 C 51.914062 -57.453125 54.046875 -48.210938 54.046875 -36.046875 Z M 18.796875 -36.046875 C 18.796875 -27.203125 19.554688 -20.863281 21.078125 -17.03125 C 22.609375 -13.207031 25.179688 -11.296875 28.796875 -11.296875 C 32.347656 -11.296875 34.910156 -13.234375 36.484375 -17.109375 C 38.066406 -20.992188 38.859375 -27.304688 38.859375 -36.046875 C 38.859375 -44.890625 38.0625 -51.242188 36.46875 -55.109375 C 34.875 -58.972656 32.316406 -60.90625 28.796875 -60.90625 C 25.210938 -60.90625 22.648438 -58.972656 21.109375 -55.109375 C 19.566406 -51.242188 18.796875 -44.890625 18.796875 -36.046875 Z M 18.796875 -36.046875 "/></g></g></g><g fill="#d6e9ff" fill-opacity="1"><g transform="translate(129.836349, 178.483542)"><g><path d="M 41.71875 0 L 26.484375 0 L 26.484375 -41.71875 L 26.625 -48.578125 L 26.875 -56.078125 C 24.34375 -53.546875 22.582031 -51.882812 21.59375 -51.09375 L 13.3125 -44.4375 L 5.96875 -53.609375 L 29.203125 -72.09375 L 41.71875 -72.09375 Z M 41.71875 0 "/></g></g></g></svg>