<svg xmlns="http://www.w3.org/2000/svg" xmlns:xlink="http://www.w3.org/1999/xlink" width="40"
     viewBox="0 0 30 30.000001" height="40" preserveAspectRatio="xMidYMid meet"
    version="1">
    <rect width="40" height="40" fill="transparent"/>
    <g clip-path="url(#319e079c70)">
        <path fill="transparent"
            d="M 0.5 0 L 29.5 0 L 29.5 29 L 0.5 29 Z M 0.5 0"
            fill-opacity="0" fill-rule="nonzero" />
    </g>
    <g clip-path="url(#3951569fc6)">
        <path fill="#00abe4"
            d="M 18.4 9.1 L 27.6 9.1 C 27.8 9.1 28 9.1 28.2 9.2 C 28.4 9.3 28.5 9.4 28.7 9.5 C 28.8 9.7 28.9 9.8 29 10 C 29.1 10.2 29.1 10.4 29.1 10.6 L 29.1 12.6 C 29.1 12.8 29.1 13 29 13.2 C 28.9 13.3 28.8 13.5 28.7 13.7 C 28.5 13.8 28.4 13.9 28.2 14 C 28 14.1 27.8 14.1 27.6 14.1 L 16.8 14.1 L 16.8 10.6 C 16.8 10.4 16.8 10.2 16.9 10 C 17 9.8 17.1 9.7 17.3 9.5 C 17.4 9.4 17.6 9.3 17.8 9.2 C 18 9.1 18.2 9.1 18.4 9.1 Z M 18.4 9.1"
            fill-opacity="1" fill-rule="nonzero" />
    </g>
    <g clip-path="url(#69bba946a2)">
        <path fill="#00abe4"
            d="M 24.2 14.1 L 16.8 14.1 L 16.8 22.8 L 20.4 19.2 L 24.2 19.2 C 24.4 19.2 24.6 19.1 24.8 19.1 C 25 19 25.2 18.9 25.3 18.7 C 25.5 18.6 25.6 18.4 25.7 18.2 C 25.8 18 25.8 17.8 25.8 17.6 L 25.8 15.7 C 25.8 15.5 25.8 15.3 25.7 15.1 C 25.6 14.9 25.5 14.7 25.3 14.6 C 25.2 14.4 25 14.3 24.8 14.2 C 24.6 14.2 24.4 14.1 24.2 14.1 Z M 24.2 14.1"
            fill-opacity="1" fill-rule="nonzero" />
        <path fill="#ffffff"
            d="M 24.2 14.1 L 18.4 14.1 C 18.2 14.1 18 14.2 17.8 14.2 C 17.6 14.3 17.4 14.4 17.3 14.6 C 17.1 14.7 17 14.9 16.9 15.1 C 16.8 15.3 16.8 15.5 16.8 15.7 L 16.8 22.8 L 19.8 19.8 C 20.2 19.4 20.7 19.2 21.3 19.2 L 24.2 19.2 C 24.4 19.2 24.6 19.1 24.8 19.1 C 25 19 25.2 18.9 25.3 18.7 C 25.5 18.6 25.6 18.4 25.7 18.2 C 25.8 18 25.8 17.8 25.8 17.6 L 25.8 15.7 C 25.8 15.5 25.8 15.3 25.7 15.1 C 25.6 14.9 25.5 14.7 25.3 14.6 C 25.2 14.4 25 14.3 24.8 14.2 C 24.6 14.2 24.4 14.1 24.2 14.1 Z M 24.2 14.1"
            fill-opacity="1" fill-rule="nonzero" />
    </g>
    <path stroke-linecap="round" transform="matrix(0.7,0,0,0.7,19.1,16.4)"
        fill="none" stroke-linejoin="miter" d="M 0.5 0.5 L 5.9 0.5"
        stroke="#d6e9ff" stroke-width="1" stroke-opacity="1" stroke-miterlimit="4" />
    <path stroke-linecap="round" transform="matrix(0.7,0,0,0.7,19.1,11.4)"
        fill="none" stroke-linejoin="miter" d="M 0.5 0.5 L 9.9 0.5"
        stroke="#d6e9ff" stroke-width="1" stroke-opacity="1" stroke-miterlimit="4" />
    <g fill="#00abe4" fill-opacity="1">
        <g transform="translate(0.5,21.5)">
            <g>
                <path
                    d="M 5.3 0.2 C 8 0.2 9.7 -2.1 9.7 -5.7 C 9.7 -9.3 8 -11.6 5.3 -11.6 C 2.6 -11.6 0.9 -9.3 0.9 -5.7 C 0.9 -2.1 2.6 0.2 5.3 0.2 Z M 5.3 -1.1 C 3.5 -1.1 2.3 -2.8 2.3 -5.7 C 2.3 -8.5 3.5 -10.2 5.3 -10.2 C 7.2 -10.2 8.3 -8.5 8.3 -5.7 C 8.3 -2.8 7.2 -1.1 5.3 -1.1 Z M 5.3 -1.1" />
            </g>
        </g>
    </g>
    <g fill="#00abe4" fill-opacity="1">
        <g transform="translate(11.1,21.5)">
            <g>
                <path
                    d="M 0.4 -11.4 L 0.4 -10.1 L 2.6 -10.1 L 2.6 0 L 4 0 L 4 -11.4 Z M 0.4 -11.4" />
            </g>
        </g>
    </g>
</svg>