<?xml version="1.0" encoding="utf-8"?>
<svg viewBox="45.5841 67.7795 145.7873 75.5538" xmlns="http://www.w3.org/2000/svg">
  <g transform="matrix(0.018318001180887222, 0, 0, -0.024170001968741417, 45.5840835571289, 143.4137725830078)" fill="#000000" stroke="none" style="">
    <path d="M585 3124 c-11 -2 -45 -9 -75 -15 -94 -18 -163 -46 -235 -97 -136 -96 -213 -209 -254 -370 -21 -78 -21 -103 -21 -1044 0 -642 4 -978 11 -1008 6 -25 12 -52 14 -60 5 -27 38 -104 59 -140 50 -85 153 -186 239 -234 37 -21 73 -39 80 -40 6 -1 28 -7 47 -14 19 -6 49 -15 65 -19 53 -13 6577 -16 6679 -2 109 14 183 38 260 86 47 29 62 34 75 25 80 -56 334 -172 377 -172 8 0 25 -5 37 -11 19 -8 20 -8 7 3 -49 42 -153 283 -166 383 -1 11 -3 20 -4 20 -10 0 -14 200 -19 1105 -3 580 -9 1060 -13 1065 -3 6 -9 26 -12 45 -38 234 -238 427 -496 480 -93 19 -162 20 -3365 19 -1798 -1 -3279 -3 -3290 -5z" style="fill: rgb(80, 181, 255);"/>
  </g>
</svg>